<svg width="180" height="146" viewBox="0 0 180 146" fill="none" xmlns="http://www.w3.org/2000/svg">
<circle cx="90" cy="73" r="73" fill="#7C56BE"/>
<path d="M65.8301 72.8164C62.7702 68.4219 59.1081 62.6113 54.8438 55.3848V111H45.7129V40.1992H53.8184L80.0391 77.4062C82.6432 81.0846 86.5495 87.1556 91.7578 95.6191V40.1992H100.84V111H92.7344L65.8301 72.8164ZM109.873 118.422C114.137 116.664 117.751 113.913 120.713 110.17C123.675 106.394 125.156 102.634 125.156 98.8906V48.6953H111.289V40.1992H134.58V98.8906C134.58 102.341 133.636 105.824 131.748 109.34C129.893 112.855 127.337 115.997 124.082 118.764C120.859 121.531 117.327 123.581 113.486 124.916L109.873 118.422Z" fill="white"/>
</svg>
